# xmcd
#
# Track frame offsets:
#	150
#	29297
#	55342
#	76405
#	100227
#	122255
#	136880
#	155400
#	180642
#	193542
#
# Disc length: 2789 seconds
#
# Revision: 1
# Processed by: cddbd v1.4PL0 Copyright (c) Steve Scherf et al.
# Submitted via: audiograbber 1.81.01
#
DISCID=780ae30a
DTITLE=The Parker Bros - Rythym and Soul
DYEAR=1995
DGENRE=Rhythmic Soul
TTITLE0=Ain't that a bitch
TTITLE1=Hurt
TTITLE2=I've got the right
TTITLE3=B.E.L.
TTITLE4=Done you wrong
TTITLE5=No messin'
TTITLE6=Can't be on my own
TTITLE7=Part of my heart
TTITLE8=Always on my mind
TTITLE9=Reprise (We will be together)
EXTD=
EXTT0=
EXTT1=
EXTT2=
EXTT3=
EXTT4=
EXTT5=
EXTT6=
EXTT7=
EXTT8=
EXTT9=
PLAYORDER=
